<svg width="164" height="50" viewBox="0 0 297 113" fill="none" xmlns="http://www.w3.org/2000/svg">
<rect y="10" width="97" height="93" rx="10" fill="#38BEC9"/>
<path d="M56.3594 68.2812V20.75H69.25V68.2812C69.25 72.8125 68.2656 76.7031 66.2969 79.9531C64.3281 83.1719 61.6406 85.6406 58.2344 87.3594C54.8281 89.0781 50.9844 89.9375 46.7031 89.9375C42.2969 89.9375 38.3906 89.2031 34.9844 87.7344C31.5781 86.2344 28.9062 83.9531 26.9688 80.8906C25.0625 77.8281 24.1094 73.9375 24.1094 69.2188H37.0469C37.0469 71.7812 37.4375 73.8438 38.2188 75.4062C39 76.9688 40.1094 78.0938 41.5469 78.7812C43.0156 79.4688 44.7344 79.8125 46.7031 79.8125C48.6094 79.8125 50.2812 79.375 51.7188 78.5C53.1875 77.5938 54.3281 76.2812 55.1406 74.5625C55.9531 72.8438 56.3594 70.75 56.3594 68.2812Z" fill="white"/>
<path d="M141.18 59.6406V35.875H147.625V59.6406C147.625 61.9062 147.133 63.8516 146.148 65.4766C145.164 67.0859 143.82 68.3203 142.117 69.1797C140.414 70.0391 138.492 70.4688 136.352 70.4688C134.148 70.4688 132.195 70.1016 130.492 69.3672C128.789 68.6172 127.453 67.4766 126.484 65.9453C125.531 64.4141 125.055 62.4688 125.055 60.1094H131.523C131.523 61.3906 131.719 62.4219 132.109 63.2031C132.5 63.9844 133.055 64.5469 133.773 64.8906C134.508 65.2344 135.367 65.4062 136.352 65.4062C137.305 65.4062 138.141 65.1875 138.859 64.75C139.594 64.2969 140.164 63.6406 140.57 62.7812C140.977 61.9219 141.18 60.875 141.18 59.6406ZM152.453 57.5781V57.0859C152.453 55.2266 152.719 53.5156 153.25 51.9531C153.781 50.375 154.555 49.0078 155.57 47.8516C156.586 46.6953 157.828 45.7969 159.297 45.1562C160.766 44.5 162.438 44.1719 164.312 44.1719C166.219 44.1719 167.906 44.5 169.375 45.1562C170.859 45.7969 172.109 46.6953 173.125 47.8516C174.141 49.0078 174.914 50.375 175.445 51.9531C175.977 53.5156 176.242 55.2266 176.242 57.0859V57.5781C176.242 59.4219 175.977 61.1328 175.445 62.7109C174.914 64.2734 174.141 65.6406 173.125 66.8125C172.109 67.9688 170.867 68.8672 169.398 69.5078C167.93 70.1484 166.25 70.4688 164.359 70.4688C162.484 70.4688 160.805 70.1484 159.32 69.5078C157.836 68.8672 156.586 67.9688 155.57 66.8125C154.555 65.6406 153.781 64.2734 153.25 62.7109C152.719 61.1328 152.453 59.4219 152.453 57.5781ZM158.641 57.0859V57.5781C158.641 58.6875 158.75 59.7266 158.969 60.6953C159.188 61.6641 159.523 62.5156 159.977 63.25C160.43 63.9844 161.016 64.5625 161.734 64.9844C162.469 65.3906 163.344 65.5938 164.359 65.5938C165.359 65.5938 166.219 65.3906 166.938 64.9844C167.656 64.5625 168.242 63.9844 168.695 63.25C169.164 62.5156 169.508 61.6641 169.727 60.6953C169.945 59.7266 170.055 58.6875 170.055 57.5781V57.0859C170.055 55.9922 169.945 54.9688 169.727 54.0156C169.508 53.0469 169.164 52.1953 168.695 51.4609C168.242 50.7109 167.648 50.125 166.914 49.7031C166.195 49.2656 165.328 49.0469 164.312 49.0469C163.312 49.0469 162.453 49.2656 161.734 49.7031C161.016 50.125 160.43 50.7109 159.977 51.4609C159.523 52.1953 159.188 53.0469 158.969 54.0156C158.75 54.9688 158.641 55.9922 158.641 57.0859ZM180.719 34H186.93V64.3984L186.32 70H180.719V34ZM203.242 57.0625V57.5547C203.242 59.4453 203.031 61.1797 202.609 62.7578C202.203 64.3359 201.586 65.7031 200.758 66.8594C199.93 68 198.898 68.8906 197.664 69.5312C196.445 70.1562 195.016 70.4688 193.375 70.4688C191.812 70.4688 190.453 70.1641 189.297 69.5547C188.156 68.9453 187.195 68.0859 186.414 66.9766C185.633 65.8516 185.008 64.5312 184.539 63.0156C184.07 61.4844 183.719 59.8125 183.484 58V56.6641C183.719 54.8359 184.07 53.1641 184.539 51.6484C185.008 50.1328 185.633 48.8125 186.414 47.6875C187.195 46.5625 188.156 45.6953 189.297 45.0859C190.438 44.4766 191.781 44.1719 193.328 44.1719C194.984 44.1719 196.43 44.4922 197.664 45.1328C198.914 45.7578 199.945 46.6484 200.758 47.8047C201.586 48.9453 202.203 50.3047 202.609 51.8828C203.031 53.4453 203.242 55.1719 203.242 57.0625ZM197.031 57.5547V57.0625C197.031 55.9844 196.945 54.9688 196.773 54.0156C196.602 53.0469 196.32 52.1953 195.93 51.4609C195.539 50.7266 195.008 50.1484 194.336 49.7266C193.664 49.3047 192.82 49.0938 191.805 49.0938C190.836 49.0938 190.008 49.2578 189.32 49.5859C188.648 49.9141 188.086 50.3672 187.633 50.9453C187.195 51.5234 186.852 52.2031 186.602 52.9844C186.367 53.7656 186.211 54.6094 186.133 55.5156V59.1719C186.242 60.375 186.5 61.4609 186.906 62.4297C187.312 63.3828 187.914 64.1406 188.711 64.7031C189.523 65.2656 190.57 65.5469 191.852 65.5469C192.852 65.5469 193.688 65.3516 194.359 64.9609C195.031 64.5547 195.562 63.9922 195.953 63.2734C196.344 62.5391 196.617 61.6875 196.773 60.7188C196.945 59.75 197.031 58.6953 197.031 57.5547ZM221.711 64.6094V52.9141C221.711 52.0547 221.562 51.3125 221.266 50.6875C220.969 50.0625 220.516 49.5781 219.906 49.2344C219.297 48.8906 218.523 48.7188 217.586 48.7188C216.758 48.7188 216.031 48.8594 215.406 49.1406C214.797 49.4219 214.328 49.8203 214 50.3359C213.672 50.8359 213.508 51.4141 213.508 52.0703H207.297C207.297 51.0234 207.547 50.0312 208.047 49.0938C208.547 48.1406 209.258 47.2969 210.18 46.5625C211.117 45.8125 212.234 45.2266 213.531 44.8047C214.844 44.3828 216.312 44.1719 217.938 44.1719C219.859 44.1719 221.57 44.5 223.07 45.1562C224.586 45.7969 225.773 46.7656 226.633 48.0625C227.508 49.3594 227.945 50.9922 227.945 52.9609V64.0234C227.945 65.2891 228.023 66.375 228.18 67.2812C228.352 68.1719 228.602 68.9453 228.93 69.6016V70H222.625C222.328 69.3594 222.102 68.5469 221.945 67.5625C221.789 66.5625 221.711 65.5781 221.711 64.6094ZM222.578 54.5547L222.625 58.2344H218.711C217.742 58.2344 216.891 58.3359 216.156 58.5391C215.422 58.7266 214.82 59.0078 214.352 59.3828C213.883 59.7422 213.531 60.1797 213.297 60.6953C213.062 61.1953 212.945 61.7656 212.945 62.4062C212.945 63.0312 213.086 63.5938 213.367 64.0938C213.664 64.5938 214.086 64.9922 214.633 65.2891C215.195 65.5703 215.852 65.7109 216.602 65.7109C217.695 65.7109 218.648 65.4922 219.461 65.0547C220.273 64.6016 220.906 64.0547 221.359 63.4141C221.812 62.7734 222.055 62.1641 222.086 61.5859L223.867 64.2578C223.648 64.8984 223.32 65.5781 222.883 66.2969C222.445 67.0156 221.883 67.6875 221.195 68.3125C220.508 68.9375 219.68 69.4531 218.711 69.8594C217.742 70.2656 216.617 70.4688 215.336 70.4688C213.695 70.4688 212.227 70.1406 210.93 69.4844C209.633 68.8281 208.609 67.9297 207.859 66.7891C207.109 65.6484 206.734 64.3516 206.734 62.8984C206.734 61.5547 206.984 60.3672 207.484 59.3359C207.984 58.3047 208.727 57.4375 209.711 56.7344C210.695 56.0156 211.914 55.4766 213.367 55.1172C214.836 54.7422 216.516 54.5547 218.406 54.5547H222.578ZM233.5 34H239.711V64.3984L239.102 70H233.5V34ZM256.023 57.0625V57.5547C256.023 59.4453 255.812 61.1797 255.391 62.7578C254.984 64.3359 254.367 65.7031 253.539 66.8594C252.711 68 251.68 68.8906 250.445 69.5312C249.227 70.1562 247.797 70.4688 246.156 70.4688C244.594 70.4688 243.234 70.1641 242.078 69.5547C240.938 68.9453 239.977 68.0859 239.195 66.9766C238.414 65.8516 237.789 64.5312 237.32 63.0156C236.852 61.4844 236.5 59.8125 236.266 58V56.6641C236.5 54.8359 236.852 53.1641 237.32 51.6484C237.789 50.1328 238.414 48.8125 239.195 47.6875C239.977 46.5625 240.938 45.6953 242.078 45.0859C243.219 44.4766 244.562 44.1719 246.109 44.1719C247.766 44.1719 249.211 44.4922 250.445 45.1328C251.695 45.7578 252.727 46.6484 253.539 47.8047C254.367 48.9453 254.984 50.3047 255.391 51.8828C255.812 53.4453 256.023 55.1719 256.023 57.0625ZM249.812 57.5547V57.0625C249.812 55.9844 249.727 54.9688 249.555 54.0156C249.383 53.0469 249.102 52.1953 248.711 51.4609C248.32 50.7266 247.789 50.1484 247.117 49.7266C246.445 49.3047 245.602 49.0938 244.586 49.0938C243.617 49.0938 242.789 49.2578 242.102 49.5859C241.43 49.9141 240.867 50.3672 240.414 50.9453C239.977 51.5234 239.633 52.2031 239.383 52.9844C239.148 53.7656 238.992 54.6094 238.914 55.5156V59.1719C239.023 60.375 239.281 61.4609 239.688 62.4297C240.094 63.3828 240.695 64.1406 241.492 64.7031C242.305 65.2656 243.352 65.5469 244.633 65.5469C245.633 65.5469 246.469 65.3516 247.141 64.9609C247.812 64.5547 248.344 63.9922 248.734 63.2734C249.125 62.5391 249.398 61.6875 249.555 60.7188C249.727 59.75 249.812 58.6953 249.812 57.5547ZM267.086 34V70H260.875V34H267.086ZM284.383 70.4688C282.461 70.4688 280.734 70.1562 279.203 69.5312C277.672 68.9062 276.367 68.0391 275.289 66.9297C274.227 65.8047 273.406 64.5 272.828 63.0156C272.266 61.5156 271.984 59.9062 271.984 58.1875V57.25C271.984 55.2969 272.266 53.5234 272.828 51.9297C273.391 50.3203 274.188 48.9375 275.219 47.7812C276.25 46.625 277.484 45.7344 278.922 45.1094C280.359 44.4844 281.945 44.1719 283.68 44.1719C285.477 44.1719 287.062 44.4766 288.438 45.0859C289.812 45.6797 290.961 46.5234 291.883 47.6172C292.805 48.7109 293.5 50.0234 293.969 51.5547C294.438 53.0703 294.672 54.75 294.672 56.5938V59.1953H274.797V54.9297H288.578V54.4609C288.547 53.4766 288.359 52.5781 288.016 51.7656C287.672 50.9375 287.141 50.2812 286.422 49.7969C285.703 49.2969 284.773 49.0469 283.633 49.0469C282.711 49.0469 281.906 49.25 281.219 49.6562C280.547 50.0469 279.984 50.6094 279.531 51.3438C279.094 52.0625 278.766 52.9219 278.547 53.9219C278.328 54.9219 278.219 56.0312 278.219 57.25V58.1875C278.219 59.25 278.359 60.2344 278.641 61.1406C278.938 62.0469 279.367 62.8359 279.93 63.5078C280.508 64.1641 281.195 64.6797 281.992 65.0547C282.805 65.4141 283.727 65.5938 284.758 65.5938C286.055 65.5938 287.227 65.3438 288.273 64.8438C289.336 64.3281 290.258 63.5703 291.039 62.5703L294.156 65.8047C293.625 66.5859 292.906 67.3359 292 68.0547C291.109 68.7734 290.031 69.3594 288.766 69.8125C287.5 70.25 286.039 70.4688 284.383 70.4688Z" fill="#38BEC9"/>
</svg>
